<svg width="24" height="24" viewBox="0 0 24 24" fill="none" xmlns="http://www.w3.org/2000/svg">
<g clip-path="url(#clip0_614_206)">
<path d="M11.5136 2.14221L10.2536 1.38721L10.0136 2.83621C9.6316 5.12421 8.0686 7.25021 6.3446 8.74421C2.9696 11.6702 2.2306 14.8502 3.2756 17.4752C4.2756 19.9872 6.8136 21.7072 9.3896 21.9942L9.9856 22.0602C8.5116 21.1592 7.5656 19.0542 7.8956 17.4812C8.2216 15.9352 9.3336 14.4872 11.4696 13.1512L12.5466 12.4792L12.9486 13.6842C13.1856 14.3962 13.5956 14.9682 14.0126 15.5492C14.2126 15.8292 14.4156 16.1122 14.6016 16.4132C15.2446 17.4582 15.4146 18.6202 14.9996 19.7732C14.6216 20.8212 13.9986 21.6452 13.1396 22.1022L14.1096 21.9942C16.5276 21.7252 18.3026 20.8982 19.4556 19.5152C20.5986 18.1442 20.9996 16.3792 20.9996 14.5002C20.9996 12.7502 20.2806 10.9462 19.4326 9.44521C18.4386 7.68721 17.1416 6.22721 15.7256 4.81221C15.4806 5.30221 15.4996 5.50021 14.9956 6.28721C14.3414 4.549 13.1128 3.08654 11.5136 2.14221Z" fill="#FF5D03"/>
</g>
<defs>
<clipPath id="clip0_614_206">
<rect width="24" height="24" fill="white"/>
</clipPath>
</defs>
</svg>
